<svg width="255" height="58" viewBox="0 0 255 58" fill="none" xmlns="http://www.w3.org/2000/svg">
<mask id="path-1-outside-1_2005_19" maskUnits="userSpaceOnUse" x="7" y="-1" width="113" height="43" fill="black">
<rect fill="white" x="7" y="-1" width="113" height="43"/>
<path d="M26.2 8.52C25.1867 7.98667 24.0933 7.53333 22.92 7.16C21.7467 6.78666 20.6133 6.6 19.52 6.6C18.0267 6.6 16.84 6.94666 15.96 7.64C15.08 8.30666 14.64 9.22667 14.64 10.4C14.64 11.2267 14.9333 11.9467 15.52 12.56C16.1067 13.1733 16.8667 13.7067 17.8 14.16C18.7333 14.6133 19.72 15.04 20.76 15.44C21.64 15.76 22.5067 16.1467 23.36 16.6C24.24 17.0267 25.0267 17.56 25.72 18.2C26.44 18.84 27 19.64 27.4 20.6C27.8267 21.5333 28.04 22.68 28.04 24.04C28.04 25.5867 27.6533 26.9867 26.88 28.24C26.1333 29.4933 25.04 30.4933 23.6 31.24C22.1867 31.96 20.4667 32.32 18.44 32.32C17.2133 32.32 16.0133 32.1867 14.84 31.92C13.6933 31.6267 12.6 31.2533 11.56 30.8C10.5467 30.32 9.62667 29.8 8.8 29.24L10.72 25.92C11.36 26.3733 12.0933 26.8133 12.92 27.24C13.7467 27.64 14.6 27.96 15.48 28.2C16.3867 28.44 17.24 28.56 18.04 28.56C18.92 28.56 19.7867 28.4133 20.64 28.12C21.4933 27.8 22.2 27.32 22.76 26.68C23.32 26.0133 23.6 25.1467 23.6 24.08C23.6 23.1733 23.3467 22.4133 22.84 21.8C22.36 21.16 21.7067 20.6133 20.88 20.16C20.08 19.7067 19.2133 19.3067 18.28 18.96C17.3733 18.6133 16.4533 18.2267 15.52 17.8C14.5867 17.3733 13.72 16.8667 12.92 16.28C12.12 15.6667 11.4667 14.92 10.96 14.04C10.48 13.1333 10.24 12.0267 10.24 10.72C10.24 9.17333 10.6 7.82667 11.32 6.68C12.0667 5.50667 13.0933 4.58667 14.4 3.92C15.7067 3.25333 17.2133 2.88 18.92 2.8C20.8667 2.8 22.56 3.04 24 3.52C25.44 4 26.72 4.57333 27.84 5.24L26.2 8.52ZM43.4813 32.4C42.2546 32.4 41.0813 32.1333 39.9613 31.6C38.8413 31.04 37.9479 30.2933 37.2813 29.36L37.5213 28.12V40.04H33.4413V14.96H37.0013L37.5613 19.04L37.1213 17.88C37.9479 16.92 38.9613 16.12 40.1613 15.48C41.3879 14.84 42.7479 14.52 44.2413 14.52C45.8146 14.52 47.2279 14.8933 48.4813 15.64C49.7346 16.3867 50.7213 17.44 51.4413 18.8C52.1613 20.16 52.5213 21.76 52.5213 23.6C52.5213 25.4133 52.1213 26.9867 51.3213 28.32C50.5479 29.6267 49.4813 30.64 48.1213 31.36C46.7613 32.0533 45.2146 32.4 43.4813 32.4ZM42.6813 29.16C43.6946 29.16 44.6279 28.92 45.4813 28.44C46.3613 27.96 47.0546 27.3067 47.5613 26.48C48.0946 25.6267 48.3613 24.68 48.3613 23.64C48.3613 22.5467 48.1079 21.5867 47.6013 20.76C47.1213 19.9067 46.4679 19.24 45.6413 18.76C44.8413 18.28 43.9479 18.04 42.9613 18.04C42.0279 18.04 41.2013 18.2133 40.4813 18.56C39.7613 18.88 39.1479 19.3333 38.6413 19.92C38.1346 20.5067 37.7746 21.2133 37.5613 22.04V25.12C37.7213 25.8933 38.0413 26.5867 38.5213 27.2C39.0013 27.8133 39.6013 28.2933 40.3213 28.64C41.0413 28.9867 41.8279 29.16 42.6813 29.16ZM65.2666 32.4C63.3199 32.4 61.6532 32.0267 60.2666 31.28C58.8799 30.5067 57.8132 29.4533 57.0666 28.12C56.3199 26.76 55.9466 25.2133 55.9466 23.48C55.9466 21.8267 56.3599 20.3333 57.1866 19C58.0399 17.64 59.1732 16.56 60.5866 15.76C62.0266 14.96 63.6132 14.56 65.3466 14.56C67.5866 14.56 69.4399 15.2133 70.9066 16.52C72.3999 17.8267 73.3999 19.6533 73.9066 22L60.2666 26.72L59.3066 24.32L70.2266 20.4L69.3866 20.92C69.0666 20.0933 68.5599 19.3733 67.8666 18.76C67.1732 18.12 66.2266 17.8 65.0266 17.8C64.0666 17.8 63.1999 18.04 62.4266 18.52C61.6799 18.9733 61.0799 19.6133 60.6266 20.44C60.1999 21.24 59.9866 22.1867 59.9866 23.28C59.9866 24.4 60.2132 25.3867 60.6666 26.24C61.1466 27.0667 61.7866 27.72 62.5866 28.2C63.4132 28.68 64.3332 28.92 65.3466 28.92C66.0666 28.92 66.7466 28.7867 67.3866 28.52C68.0532 28.2533 68.6799 27.92 69.2666 27.52L71.1466 30.56C70.2666 31.12 69.3066 31.5733 68.2666 31.92C67.2532 32.24 66.2532 32.4 65.2666 32.4ZM85.4803 32.4C83.907 32.4 82.4803 32.08 81.2003 31.44C79.9203 30.7733 78.907 29.7867 78.1603 28.48C77.4136 27.1733 77.0403 25.56 77.0403 23.64C77.0403 21.7467 77.427 20.12 78.2003 18.76C79.0003 17.4 80.0403 16.36 81.3203 15.64C82.627 14.8933 84.0403 14.52 85.5603 14.52C87.1603 14.52 88.467 14.8667 89.4803 15.56C90.5203 16.2267 91.3336 17.0133 91.9203 17.92L91.6403 18.56L92.0403 15.24H95.8403V32H91.7203V27.8L92.1603 28.8C92.0536 29.0133 91.827 29.32 91.4803 29.72C91.1336 30.0933 90.667 30.4933 90.0803 30.92C89.5203 31.3467 88.8536 31.7067 88.0803 32C87.3336 32.2667 86.467 32.4 85.4803 32.4ZM86.6003 29.04C87.4803 29.04 88.267 28.88 88.9603 28.56C89.6536 28.24 90.2403 27.7867 90.7203 27.2C91.2003 26.6133 91.5336 25.92 91.7203 25.12V21.64C91.507 20.8933 91.147 20.2533 90.6403 19.72C90.1336 19.16 89.5203 18.72 88.8003 18.4C88.107 18.08 87.3336 17.92 86.4803 17.92C85.5203 17.92 84.6403 18.16 83.8403 18.64C83.0403 19.0933 82.4003 19.7333 81.9203 20.56C81.4403 21.3867 81.2003 22.3467 81.2003 23.44C81.2003 24.48 81.4403 25.4267 81.9203 26.28C82.427 27.1333 83.0936 27.8133 83.9203 28.32C84.747 28.8 85.6403 29.04 86.6003 29.04ZM102.152 32V0.92H106.272V32H102.152ZM110.352 20.8L118.032 32H113.232L107.632 23.16L110.352 20.8ZM104.992 26.84L104.592 22.88L114.752 14.88L117.272 17.08L104.992 26.84Z"/>
</mask>
<path d="M26.2 8.52C25.1867 7.98667 24.0933 7.53333 22.92 7.16C21.7467 6.78666 20.6133 6.6 19.52 6.6C18.0267 6.6 16.84 6.94666 15.96 7.64C15.08 8.30666 14.64 9.22667 14.64 10.4C14.64 11.2267 14.9333 11.9467 15.52 12.56C16.1067 13.1733 16.8667 13.7067 17.8 14.16C18.7333 14.6133 19.72 15.04 20.76 15.44C21.64 15.76 22.5067 16.1467 23.36 16.6C24.24 17.0267 25.0267 17.56 25.72 18.2C26.44 18.84 27 19.64 27.4 20.6C27.8267 21.5333 28.04 22.68 28.04 24.04C28.04 25.5867 27.6533 26.9867 26.88 28.24C26.1333 29.4933 25.04 30.4933 23.6 31.24C22.1867 31.96 20.4667 32.32 18.44 32.32C17.2133 32.32 16.0133 32.1867 14.84 31.92C13.6933 31.6267 12.6 31.2533 11.56 30.8C10.5467 30.32 9.62667 29.8 8.8 29.24L10.72 25.92C11.36 26.3733 12.0933 26.8133 12.92 27.24C13.7467 27.64 14.6 27.96 15.48 28.2C16.3867 28.44 17.24 28.56 18.04 28.56C18.92 28.56 19.7867 28.4133 20.64 28.12C21.4933 27.8 22.2 27.32 22.76 26.68C23.32 26.0133 23.6 25.1467 23.6 24.08C23.6 23.1733 23.3467 22.4133 22.84 21.8C22.36 21.16 21.7067 20.6133 20.88 20.16C20.08 19.7067 19.2133 19.3067 18.28 18.96C17.3733 18.6133 16.4533 18.2267 15.52 17.8C14.5867 17.3733 13.72 16.8667 12.92 16.28C12.12 15.6667 11.4667 14.92 10.96 14.04C10.48 13.1333 10.24 12.0267 10.24 10.72C10.24 9.17333 10.6 7.82667 11.32 6.68C12.0667 5.50667 13.0933 4.58667 14.4 3.92C15.7067 3.25333 17.2133 2.88 18.92 2.8C20.8667 2.8 22.56 3.04 24 3.52C25.44 4 26.72 4.57333 27.84 5.24L26.2 8.52ZM43.4813 32.4C42.2546 32.4 41.0813 32.1333 39.9613 31.6C38.8413 31.04 37.9479 30.2933 37.2813 29.36L37.5213 28.12V40.04H33.4413V14.96H37.0013L37.5613 19.04L37.1213 17.88C37.9479 16.92 38.9613 16.12 40.1613 15.48C41.3879 14.84 42.7479 14.52 44.2413 14.52C45.8146 14.52 47.2279 14.8933 48.4813 15.64C49.7346 16.3867 50.7213 17.44 51.4413 18.8C52.1613 20.16 52.5213 21.76 52.5213 23.6C52.5213 25.4133 52.1213 26.9867 51.3213 28.32C50.5479 29.6267 49.4813 30.64 48.1213 31.36C46.7613 32.0533 45.2146 32.4 43.4813 32.4ZM42.6813 29.16C43.6946 29.16 44.6279 28.92 45.4813 28.44C46.3613 27.96 47.0546 27.3067 47.5613 26.48C48.0946 25.6267 48.3613 24.68 48.3613 23.64C48.3613 22.5467 48.1079 21.5867 47.6013 20.76C47.1213 19.9067 46.4679 19.24 45.6413 18.76C44.8413 18.28 43.9479 18.04 42.9613 18.04C42.0279 18.04 41.2013 18.2133 40.4813 18.56C39.7613 18.88 39.1479 19.3333 38.6413 19.92C38.1346 20.5067 37.7746 21.2133 37.5613 22.04V25.12C37.7213 25.8933 38.0413 26.5867 38.5213 27.2C39.0013 27.8133 39.6013 28.2933 40.3213 28.64C41.0413 28.9867 41.8279 29.16 42.6813 29.16ZM65.2666 32.4C63.3199 32.4 61.6532 32.0267 60.2666 31.28C58.8799 30.5067 57.8132 29.4533 57.0666 28.12C56.3199 26.76 55.9466 25.2133 55.9466 23.48C55.9466 21.8267 56.3599 20.3333 57.1866 19C58.0399 17.64 59.1732 16.56 60.5866 15.76C62.0266 14.96 63.6132 14.56 65.3466 14.56C67.5866 14.56 69.4399 15.2133 70.9066 16.52C72.3999 17.8267 73.3999 19.6533 73.9066 22L60.2666 26.72L59.3066 24.32L70.2266 20.4L69.3866 20.92C69.0666 20.0933 68.5599 19.3733 67.8666 18.76C67.1732 18.12 66.2266 17.8 65.0266 17.8C64.0666 17.8 63.1999 18.04 62.4266 18.52C61.6799 18.9733 61.0799 19.6133 60.6266 20.44C60.1999 21.24 59.9866 22.1867 59.9866 23.28C59.9866 24.4 60.2132 25.3867 60.6666 26.24C61.1466 27.0667 61.7866 27.72 62.5866 28.2C63.4132 28.68 64.3332 28.92 65.3466 28.92C66.0666 28.92 66.7466 28.7867 67.3866 28.52C68.0532 28.2533 68.6799 27.92 69.2666 27.52L71.1466 30.56C70.2666 31.12 69.3066 31.5733 68.2666 31.92C67.2532 32.24 66.2532 32.4 65.2666 32.4ZM85.4803 32.4C83.907 32.4 82.4803 32.08 81.2003 31.44C79.9203 30.7733 78.907 29.7867 78.1603 28.48C77.4136 27.1733 77.0403 25.56 77.0403 23.64C77.0403 21.7467 77.427 20.12 78.2003 18.76C79.0003 17.4 80.0403 16.36 81.3203 15.64C82.627 14.8933 84.0403 14.52 85.5603 14.52C87.1603 14.52 88.467 14.8667 89.4803 15.56C90.5203 16.2267 91.3336 17.0133 91.9203 17.92L91.6403 18.56L92.0403 15.24H95.8403V32H91.7203V27.8L92.1603 28.8C92.0536 29.0133 91.827 29.32 91.4803 29.72C91.1336 30.0933 90.667 30.4933 90.0803 30.92C89.5203 31.3467 88.8536 31.7067 88.0803 32C87.3336 32.2667 86.467 32.4 85.4803 32.4ZM86.6003 29.04C87.4803 29.04 88.267 28.88 88.9603 28.56C89.6536 28.24 90.2403 27.7867 90.7203 27.2C91.2003 26.6133 91.5336 25.92 91.7203 25.12V21.64C91.507 20.8933 91.147 20.2533 90.6403 19.72C90.1336 19.16 89.5203 18.72 88.8003 18.4C88.107 18.08 87.3336 17.92 86.4803 17.92C85.5203 17.92 84.6403 18.16 83.8403 18.64C83.0403 19.0933 82.4003 19.7333 81.9203 20.56C81.4403 21.3867 81.2003 22.3467 81.2003 23.44C81.2003 24.48 81.4403 25.4267 81.9203 26.28C82.427 27.1333 83.0936 27.8133 83.9203 28.32C84.747 28.8 85.6403 29.04 86.6003 29.04ZM102.152 32V0.92H106.272V32H102.152ZM110.352 20.8L118.032 32H113.232L107.632 23.16L110.352 20.8ZM104.992 26.84L104.592 22.88L114.752 14.88L117.272 17.08L104.992 26.84Z" fill="white" fill-opacity="0.5"/>
<path d="M26.2 8.52L25.7343 9.40492L26.6378 9.88047L27.0944 8.96721L26.2 8.52ZM22.92 7.16L23.2232 6.20707L22.92 7.16ZM15.96 7.64L16.5639 8.43709L16.5714 8.43136L16.5789 8.42549L15.96 7.64ZM15.52 12.56L16.2426 11.8688V11.8688L15.52 12.56ZM17.8 14.16L17.3631 15.0595V15.0595L17.8 14.16ZM20.76 15.44L20.401 16.3733L20.4096 16.3766L20.4183 16.3798L20.76 15.44ZM23.36 16.6L22.8908 17.4831L22.9071 17.4918L22.9237 17.4998L23.36 16.6ZM25.72 18.2L25.0417 18.9348L25.0486 18.9412L25.0556 18.9474L25.72 18.2ZM27.4 20.6L26.4769 20.9846L26.4835 21.0003L26.4905 21.0158L27.4 20.6ZM26.88 28.24L26.029 27.7149L26.0249 27.7215L26.0209 27.7282L26.88 28.24ZM23.6 31.24L24.0539 32.1311L24.0603 32.1278L23.6 31.24ZM14.84 31.92L14.5922 32.8888L14.6052 32.8921L14.6184 32.8951L14.84 31.92ZM11.56 30.8L11.1319 31.7037L11.1461 31.7104L11.1604 31.7167L11.56 30.8ZM8.8 29.24L7.93434 28.7394L7.46809 29.5456L8.23915 30.0679L8.8 29.24ZM10.72 25.92L11.298 25.104L10.4033 24.4702L9.85434 25.4194L10.72 25.92ZM12.92 27.24L12.4614 28.1286L12.4728 28.1345L12.4844 28.1402L12.92 27.24ZM15.48 28.2L15.2169 29.1648L15.2241 29.1667L15.48 28.2ZM20.64 28.12L20.9651 29.0657L20.9782 29.0612L20.9911 29.0563L20.64 28.12ZM22.76 26.68L23.5126 27.3385L23.5192 27.3309L23.5257 27.3232L22.76 26.68ZM22.84 21.8L22.04 22.4L22.0541 22.4188L22.069 22.4369L22.84 21.8ZM20.88 20.16L20.3869 21.0301L20.3992 21.0368L20.88 20.16ZM18.28 18.96L17.9228 19.8941L17.9318 19.8974L18.28 18.96ZM15.52 17.8L15.9358 16.8905L15.52 17.8ZM12.92 16.28L12.3116 17.0736L12.32 17.0801L12.3286 17.0864L12.92 16.28ZM10.96 14.04L10.0762 14.5079L10.0845 14.5236L10.0934 14.539L10.96 14.04ZM11.32 6.68L10.4763 6.14311L10.4731 6.14823L11.32 6.68ZM14.4 3.92L14.8545 4.81076L14.8545 4.81076L14.4 3.92ZM18.92 2.8V1.8H18.8966L18.8732 1.8011L18.92 2.8ZM24 3.52L23.6838 4.46868L24 3.52ZM27.84 5.24L28.7344 5.68721L29.15 4.85603L28.3515 4.38071L27.84 5.24ZM26.6657 7.63508C25.5966 7.07238 24.4485 6.59692 23.2232 6.20707L22.6168 8.11292C23.7382 8.46974 24.7767 8.90095 25.7343 9.40492L26.6657 7.63508ZM23.2232 6.20707C21.964 5.80642 20.7283 5.6 19.52 5.6V7.6C20.4984 7.6 21.5293 7.7669 22.6168 8.11292L23.2232 6.20707ZM19.52 5.6C17.8768 5.6 16.4483 5.98215 15.3411 6.85451L16.5789 8.42549C17.2317 7.91118 18.1765 7.6 19.52 7.6V5.6ZM15.3561 6.84291C14.2089 7.71201 13.64 8.93647 13.64 10.4H15.64C15.64 9.51686 15.9511 8.90132 16.5639 8.43709L15.3561 6.84291ZM13.64 10.4C13.64 11.4917 14.038 12.4573 14.7974 13.2512L16.2426 11.8688C15.8287 11.436 15.64 10.9616 15.64 10.4H13.64ZM14.7974 13.2512C15.4821 13.9671 16.3459 14.5654 17.3631 15.0595L18.2369 13.2605C17.3874 12.8479 16.7312 12.3795 16.2426 11.8688L14.7974 13.2512ZM17.3631 15.0595C18.3237 15.5261 19.3365 15.9639 20.401 16.3733L21.119 14.5067C20.1035 14.1161 19.143 13.7006 18.2369 13.2605L17.3631 15.0595ZM20.4183 16.3798C21.2531 16.6834 22.0773 17.0509 22.8908 17.4831L23.8292 15.7169C22.936 15.2424 22.0269 14.8366 21.1017 14.5002L20.4183 16.3798ZM22.9237 17.4998C23.7186 17.8852 24.4231 18.3638 25.0417 18.9348L26.3983 17.4652C25.6302 16.7562 24.7614 16.1681 23.7963 15.7002L22.9237 17.4998ZM25.0556 18.9474C25.6544 19.4797 26.1301 20.1522 26.4769 20.9846L28.3231 20.2154C27.8699 19.1278 27.2256 18.2003 26.3844 17.4526L25.0556 18.9474ZM26.4905 21.0158C26.8415 21.7835 27.04 22.779 27.04 24.04H29.04C29.04 22.581 28.8119 21.2832 28.3095 20.1842L26.4905 21.0158ZM27.04 24.04C27.04 25.411 26.6999 26.6275 26.029 27.7149L27.731 28.7651C28.6068 27.3458 29.04 25.7624 29.04 24.04H27.04ZM26.0209 27.7282C25.38 28.804 24.4334 29.6814 23.1397 30.3522L24.0603 32.1278C25.6466 31.3052 26.8867 30.1826 27.7391 28.7518L26.0209 27.7282ZM23.1461 30.349C21.9069 30.9802 20.3514 31.32 18.44 31.32V33.32C20.5819 33.32 22.4664 32.9398 24.0539 32.131L23.1461 30.349ZM18.44 31.32C17.2864 31.32 16.1608 31.1947 15.0616 30.9449L14.6184 32.8951C15.8658 33.1786 17.1402 33.32 18.44 33.32V31.32ZM15.0878 30.9512C13.9908 30.6706 12.9484 30.3143 11.9596 29.8833L11.1604 31.7167C12.2516 32.1923 13.3958 32.5828 14.5922 32.8888L15.0878 30.9512ZM11.9881 29.8963C11.0154 29.4355 10.1405 28.9402 9.36085 28.4121L8.23915 30.0679C9.11285 30.6598 10.078 31.2045 11.1319 31.7037L11.9881 29.8963ZM9.66566 29.7406L11.5857 26.4206L9.85434 25.4194L7.93434 28.7394L9.66566 29.7406ZM10.142 26.736C10.8263 27.2207 11.6006 27.6844 12.4614 28.1286L13.3786 26.3514C12.586 25.9423 11.8937 25.5259 11.298 25.104L10.142 26.736ZM12.4844 28.1402C13.3661 28.5668 14.2771 28.9085 15.2169 29.1648L15.7431 27.2352C14.9229 27.0115 14.1272 26.7132 13.3556 26.3398L12.4844 28.1402ZM15.2241 29.1667C16.2003 29.4251 17.1403 29.56 18.04 29.56V27.56C17.3397 27.56 16.573 27.4549 15.7359 27.2333L15.2241 29.1667ZM18.04 29.56C19.0334 29.56 20.0098 29.3941 20.9651 29.0657L20.3149 27.1743C19.5635 27.4326 18.8066 27.56 18.04 27.56V29.56ZM20.9911 29.0563C21.9878 28.6826 22.836 28.1117 23.5126 27.3385L22.0074 26.0215C21.564 26.5283 20.9989 26.9174 20.2889 27.1837L20.9911 29.0563ZM23.5257 27.3232C24.269 26.4384 24.6 25.327 24.6 24.08H22.6C22.6 24.9663 22.371 25.5883 21.9943 26.0368L23.5257 27.3232ZM24.6 24.08C24.6 22.9752 24.2862 21.9805 23.611 21.1631L22.069 22.4369C22.4072 22.8462 22.6 23.3715 22.6 24.08H24.6ZM23.64 21.2C23.0606 20.4275 22.2903 19.7929 21.3608 19.2832L20.3992 21.0368C21.123 21.4337 21.6594 21.8925 22.04 22.4L23.64 21.2ZM21.373 19.29C20.523 18.8083 19.6074 18.3863 18.6282 18.0226L17.9318 19.8974C18.8192 20.227 19.637 20.605 20.387 21.03L21.373 19.29ZM18.6371 18.0259C17.7514 17.6873 16.8509 17.3089 15.9358 16.8905L15.1042 18.7095C16.0558 19.1445 16.9953 19.5394 17.9229 19.8941L18.6371 18.0259ZM15.9358 16.8905C15.0622 16.4912 14.2546 16.0187 13.5114 15.4736L12.3286 17.0864C13.1854 17.7147 14.1111 18.2555 15.1042 18.7095L15.9358 16.8905ZM13.5284 15.4864C12.8339 14.9539 12.268 14.3076 11.8266 13.541L10.0934 14.539C10.6653 15.5324 11.4061 16.3794 12.3116 17.0736L13.5284 15.4864ZM11.8438 13.5721C11.4582 12.8437 11.24 11.9071 11.24 10.72H9.24C9.24 12.1462 9.50184 13.423 10.0762 14.5079L11.8438 13.5721ZM11.24 10.72C11.24 9.33405 11.5606 8.17738 12.1669 7.21177L10.4731 6.14823C9.63943 7.47595 9.24 9.01262 9.24 10.72H11.24ZM12.1637 7.21687C12.8092 6.20248 13.6977 5.40093 14.8545 4.81076L13.9455 3.02924C12.4889 3.7724 11.3241 4.81085 10.4763 6.14312L12.1637 7.21687ZM14.8545 4.81076C16.0153 4.2185 17.379 3.87333 18.9668 3.7989L18.8732 1.8011C17.0477 1.88666 15.398 2.28817 13.9455 3.02924L14.8545 4.81076ZM18.92 3.8C20.788 3.8 22.3699 4.03072 23.6838 4.46868L24.3162 2.57132C22.7501 2.04928 20.9453 1.8 18.92 1.8V3.8ZM23.6838 4.46868C25.0665 4.9296 26.2793 5.47476 27.3285 6.09929L28.3515 4.38071C27.1607 3.6719 25.8135 3.0704 24.3162 2.57132L23.6838 4.46868ZM26.9456 4.79279L25.3056 8.07279L27.0944 8.96721L28.7344 5.68721L26.9456 4.79279ZM39.9613 31.6L39.514 32.4944L39.5226 32.4987L39.5313 32.5029L39.9613 31.6ZM37.2812 29.36L36.2995 29.17L36.2178 29.5917L36.4675 29.9412L37.2812 29.36ZM37.5212 28.12H38.5212L36.5395 27.93L37.5212 28.12ZM37.5212 40.04V41.04H38.5212V40.04H37.5212ZM33.4412 40.04H32.4412V41.04H33.4412V40.04ZM33.4412 14.96V13.96H32.4412V14.96H33.4412ZM37.0013 14.96L37.992 14.824L37.8734 13.96H37.0013V14.96ZM37.5613 19.04L36.6263 19.3947L38.552 18.904L37.5613 19.04ZM37.1213 17.88L36.3635 17.2275L35.9752 17.6783L36.1863 18.2347L37.1213 17.88ZM40.1613 15.48L39.6987 14.5934L39.6907 14.5976L40.1613 15.48ZM48.4813 15.64L47.9694 16.4991V16.4991L48.4813 15.64ZM51.3213 28.32L50.4637 27.8055L50.4607 27.8107L51.3213 28.32ZM48.1213 31.36L48.5754 32.2509L48.5823 32.2474L48.5891 32.2438L48.1213 31.36ZM45.4813 28.44L45.0024 27.562L44.991 27.5684L45.4813 28.44ZM47.5612 26.48L46.7132 25.95L46.7086 25.9574L47.5612 26.48ZM47.6012 20.76L46.7297 21.2503L46.7389 21.2666L46.7486 21.2826L47.6012 20.76ZM45.6413 18.76L45.1268 19.6175L45.1329 19.6212L45.1391 19.6248L45.6413 18.76ZM40.4813 18.56L40.8874 19.4738L40.9013 19.4676L40.9151 19.461L40.4813 18.56ZM38.6413 19.92L37.8844 19.2664L37.8844 19.2664L38.6413 19.92ZM37.5613 22.04L36.593 21.7901L36.5613 21.913V22.04H37.5613ZM37.5613 25.12H36.5613V25.2224L36.582 25.3226L37.5613 25.12ZM38.5212 27.2L39.3088 26.5837V26.5837L38.5212 27.2ZM40.3213 28.64L40.7551 27.739L40.3213 28.64ZM43.4813 31.4C42.4051 31.4 41.3784 31.1673 40.3912 30.6971L39.5313 32.5029C40.784 33.0994 42.1041 33.4 43.4813 33.4V31.4ZM40.4085 30.7056C39.4207 30.2117 38.6583 29.5675 38.095 28.7788L36.4675 29.9412C37.2375 31.0192 38.2618 31.8683 39.514 32.4944L40.4085 30.7056ZM38.263 29.55L38.503 28.31L36.5395 27.93L36.2995 29.17L38.263 29.55ZM36.5212 28.12V40.04H38.5212V28.12H36.5212ZM37.5212 39.04H33.4412V41.04H37.5212V39.04ZM34.4412 40.04V14.96H32.4412V40.04H34.4412ZM33.4412 15.96H37.0013V13.96H33.4412V15.96ZM36.0105 15.096L36.5705 19.176L38.552 18.904L37.992 14.824L36.0105 15.096ZM38.4962 18.6853L38.0562 17.5253L36.1863 18.2347L36.6263 19.3947L38.4962 18.6853ZM37.879 18.5325C38.6192 17.6729 39.5329 16.9485 40.6318 16.3624L39.6907 14.5976C38.3896 15.2915 37.2766 16.1671 36.3635 17.2275L37.879 18.5325ZM40.6238 16.3666C41.6965 15.8069 42.8959 15.52 44.2412 15.52V13.52C42.5999 13.52 41.0793 13.8731 39.6987 14.5934L40.6238 16.3666ZM44.2412 15.52C45.649 15.52 46.883 15.8519 47.9694 16.4991L48.9931 14.7809C47.5728 13.9348 45.9801 13.52 44.2412 13.52V15.52ZM47.9694 16.4991C49.0565 17.1467 49.9183 18.0607 50.5575 19.2679L52.325 18.3321C51.5242 16.8193 50.4127 15.6266 48.9931 14.7809L47.9694 16.4991ZM50.5575 19.2679C51.1876 20.4581 51.5213 21.8913 51.5213 23.6H53.5213C53.5213 21.6287 53.1349 19.8619 52.325 18.3321L50.5575 19.2679ZM51.5213 23.6C51.5213 25.2626 51.156 26.6518 50.4638 27.8055L52.1787 28.8345C53.0865 27.3215 53.5213 25.5641 53.5213 23.6H51.5213ZM50.4607 27.8107C49.7826 28.9565 48.8528 29.8412 47.6534 30.4762L48.5891 32.2438C50.1097 31.4388 51.3133 30.2969 52.1818 28.8293L50.4607 27.8107ZM47.6671 30.4691C46.4657 31.0815 45.0783 31.4 43.4813 31.4V33.4C45.3509 33.4 47.0568 33.0251 48.5754 32.2509L47.6671 30.4691ZM42.6813 30.16C43.8601 30.16 44.9631 29.8788 45.9715 29.3116L44.991 27.5684C44.2927 27.9612 43.5291 28.16 42.6813 28.16V30.16ZM45.9601 29.3179C46.9882 28.7571 47.8126 27.9835 48.4139 27.0026L46.7086 25.9574C46.2965 26.6298 45.7343 27.1629 45.0024 27.5621L45.9601 29.3179ZM48.4092 27.01C49.0454 25.9922 49.3613 24.8608 49.3613 23.64H47.3613C47.3613 24.4992 47.1438 25.2611 46.7133 25.95L48.4092 27.01ZM49.3613 23.64C49.3613 22.3864 49.0688 21.2407 48.4539 20.2374L46.7486 21.2826C47.147 21.9326 47.3613 22.707 47.3613 23.64H49.3613ZM48.4728 20.2697C47.9075 19.2648 47.1283 18.4671 46.1434 17.8952L45.1391 19.6248C45.8075 20.0129 46.335 20.5486 46.7297 21.2503L48.4728 20.2697ZM46.1557 17.9025C45.1913 17.3238 44.1183 17.04 42.9613 17.04V19.04C43.7775 19.04 44.4912 19.2362 45.1268 19.6175L46.1557 17.9025ZM42.9613 17.04C41.9028 17.04 40.9237 17.2371 40.0474 17.659L40.9151 19.461C41.4788 19.1896 42.153 19.04 42.9613 19.04V17.04ZM40.0751 17.6462C39.2228 18.025 38.489 18.5663 37.8844 19.2664L39.3981 20.5736C39.8068 20.1003 40.2997 19.735 40.8874 19.4738L40.0751 17.6462ZM37.8844 19.2664C37.2673 19.981 36.8408 20.8297 36.593 21.7901L38.5295 22.2899C38.7083 21.5969 39.0019 21.0324 39.3981 20.5736L37.8844 19.2664ZM36.5613 22.04V25.12H38.5613V22.04H36.5613ZM36.582 25.3226C36.7727 26.2446 37.1575 27.0799 37.7337 27.8163L39.3088 26.5837C38.925 26.0934 38.6698 25.5421 38.5405 24.9174L36.582 25.3226ZM37.7337 27.8163C38.3108 28.5536 39.033 29.1296 39.8874 29.541L40.7551 27.739C40.1695 27.4571 39.6917 27.0731 39.3088 26.5837L37.7337 27.8163ZM39.8874 29.541C40.7518 29.9572 41.6881 30.16 42.6813 30.16V28.16C41.9677 28.16 41.3307 28.0161 40.7551 27.739L39.8874 29.541ZM60.2666 31.28L59.7795 32.1534L59.786 32.157L59.7925 32.1605L60.2666 31.28ZM57.0666 28.12L56.19 28.6013L56.1941 28.6086L57.0666 28.12ZM57.1866 19L56.3395 18.4685L56.3367 18.4731L57.1866 19ZM60.5866 15.76L60.1009 14.8858L60.094 14.8897L60.5866 15.76ZM70.9066 16.52L70.2413 17.2667L70.2481 17.2726L70.9066 16.52ZM73.9066 22L74.2336 22.945L75.0711 22.6552L74.884 21.789L73.9066 22ZM60.2666 26.72L59.3381 27.0914L59.6923 27.9769L60.5936 27.665L60.2666 26.72ZM59.3066 24.32L58.9687 23.3788L57.9931 23.729L58.3781 24.6914L59.3066 24.32ZM70.2266 20.4L70.7529 21.2503L69.8887 19.4588L70.2266 20.4ZM69.3866 20.92L68.454 21.281L68.8888 22.4042L69.9129 21.7703L69.3866 20.92ZM67.8666 18.76L67.1883 19.4948L67.1961 19.502L67.204 19.509L67.8666 18.76ZM62.4266 18.52L62.9456 19.3748L62.9539 19.3696L62.4266 18.52ZM60.6266 20.44L59.7497 19.9591L59.7442 19.9694L60.6266 20.44ZM60.6666 26.24L59.7834 26.7092L59.7923 26.7258L59.8018 26.7421L60.6666 26.24ZM62.5866 28.2L62.0721 29.0575L62.0782 29.0612L62.0844 29.0648L62.5866 28.2ZM67.3866 28.52L67.0152 27.5915L67.0085 27.5942L67.0019 27.5969L67.3866 28.52ZM69.2666 27.52L70.1171 26.994L69.5671 26.1048L68.7032 26.6938L69.2666 27.52ZM71.1466 30.56L71.6834 31.4037L72.5163 30.8737L71.9971 30.034L71.1466 30.56ZM68.2666 31.92L68.5677 32.8736L68.5753 32.8712L68.5828 32.8687L68.2666 31.92ZM65.2666 31.4C63.4469 31.4 61.9511 31.0513 60.7407 30.3995L59.7925 32.1605C61.3554 33.002 63.1929 33.4 65.2666 33.4V31.4ZM60.7536 30.4066C59.522 29.7197 58.5917 28.7968 57.9391 27.6314L56.1941 28.6086C57.0348 30.1099 58.2378 31.2936 59.7795 32.1534L60.7536 30.4066ZM57.9431 27.6387C57.2866 26.4429 56.9466 25.0652 56.9466 23.48H54.9466C54.9466 25.3615 55.3532 27.0771 56.19 28.6013L57.9431 27.6387ZM56.9466 23.48C56.9466 22.0024 57.3133 20.6933 58.0365 19.5269L56.3367 18.4731C55.4065 19.9733 54.9466 21.651 54.9466 23.48H56.9466ZM58.0336 19.5315C58.7977 18.3138 59.8085 17.3495 61.0792 16.6303L60.094 14.8897C58.5379 15.7705 57.2821 16.9662 56.3395 18.4685L58.0336 19.5315ZM61.0722 16.6342C62.3558 15.921 63.774 15.56 65.3466 15.56V13.56C63.4525 13.56 61.6973 13.999 60.1009 14.8858L61.0722 16.6342ZM65.3466 15.56C67.378 15.56 68.9836 16.1461 70.2414 17.2667L71.5718 15.7733C69.8962 14.2806 67.7951 13.56 65.3466 13.56V15.56ZM70.2481 17.2726C71.548 18.41 72.458 20.0293 72.9291 22.211L74.884 21.789C74.3418 19.2774 73.2518 17.2433 71.5651 15.7674L70.2481 17.2726ZM73.5795 21.055L59.9395 25.775L60.5936 27.665L74.2336 22.945L73.5795 21.055ZM61.195 26.3486L60.235 23.9486L58.3781 24.6914L59.3381 27.0914L61.195 26.3486ZM59.6444 25.2612L70.5644 21.3412L69.8887 19.4588L58.9687 23.3788L59.6444 25.2612ZM69.7002 19.5497L68.8602 20.0697L69.9129 21.7703L70.7529 21.2503L69.7002 19.5497ZM70.3191 20.559C69.9389 19.5766 69.3367 18.7254 68.5291 18.011L67.204 19.509C67.7831 20.0213 68.1943 20.61 68.454 21.281L70.3191 20.559ZM68.5448 18.0252C67.6206 17.172 66.4071 16.8 65.0266 16.8V18.8C66.0461 18.8 66.7259 19.068 67.1883 19.4948L68.5448 18.0252ZM65.0266 16.8C63.8909 16.8 62.8397 17.0866 61.8992 17.6704L62.9539 19.3696C63.5601 18.9934 64.2423 18.8 65.0266 18.8V16.8ZM61.9076 17.6652C60.9991 18.2168 60.2806 18.9912 59.7498 19.9592L61.5034 20.9208C61.8792 20.2355 62.3607 19.7298 62.9455 19.3748L61.9076 17.6652ZM59.7442 19.9694C59.2259 20.9412 58.9866 22.0561 58.9866 23.28H60.9866C60.9866 22.3173 61.1739 21.5388 61.5089 20.9106L59.7442 19.9694ZM58.9866 23.28C58.9866 24.5374 59.242 25.6899 59.7834 26.7092L61.5497 25.7708C61.1845 25.0834 60.9866 24.2626 60.9866 23.28H58.9866ZM59.8018 26.7421C60.3645 27.7112 61.1235 28.4883 62.0721 29.0575L63.1011 27.3425C62.4496 26.9517 61.9287 26.4221 61.5314 25.7379L59.8018 26.7421ZM62.0844 29.0648C63.0729 29.6387 64.1679 29.92 65.3466 29.92V27.92C64.4986 27.92 63.7536 27.7213 63.0887 27.3352L62.0844 29.0648ZM65.3466 29.92C66.1934 29.92 67.0046 29.7625 67.7712 29.4431L67.0019 27.5969C66.4885 27.8109 65.9397 27.92 65.3466 27.92V29.92ZM67.758 29.4485C68.4914 29.1551 69.1825 28.7876 69.8299 28.3462L68.7032 26.6938C68.1773 27.0524 67.6151 27.3516 67.0152 27.5915L67.758 29.4485ZM68.4161 28.046L70.2961 31.086L71.9971 30.034L70.1171 26.994L68.4161 28.046ZM70.6097 29.7163C69.8021 30.2303 68.9167 30.6492 67.9503 30.9713L68.5828 32.8687C69.6964 32.4975 70.731 32.0097 71.6834 31.4037L70.6097 29.7163ZM67.9654 30.9664C67.042 31.258 66.1435 31.4 65.2666 31.4V33.4C66.363 33.4 67.4644 33.222 68.5677 32.8736L67.9654 30.9664ZM81.2003 31.44L80.7384 32.3269L80.7457 32.3307L80.7531 32.3344L81.2003 31.44ZM78.1603 28.48L77.2921 28.9761L78.1603 28.48ZM78.2003 18.76L77.3384 18.253L77.3347 18.2593L77.331 18.2657L78.2003 18.76ZM81.3203 15.64L81.8106 16.5116L81.8165 16.5082L81.3203 15.64ZM89.4803 15.56L88.9156 16.3853L88.928 16.3938L88.9406 16.4019L89.4803 15.56ZM91.9203 17.92L92.8365 18.3208L93.052 17.8282L92.7599 17.3767L91.9203 17.92ZM91.6403 18.56L90.6475 18.4404L92.5565 18.9608L91.6403 18.56ZM92.0403 15.24V14.24H91.1536L91.0475 15.1204L92.0403 15.24ZM95.8403 15.24H96.8403V14.24H95.8403V15.24ZM95.8403 32V33H96.8403V32H95.8403ZM91.7203 32H90.7203V33H91.7203V32ZM91.7203 27.8L92.6356 27.3973L90.7203 27.8H91.7203ZM92.1603 28.8L93.0547 29.2472L93.2648 28.8271L93.0756 28.3973L92.1603 28.8ZM91.4803 29.72L92.2131 30.4004L92.2248 30.3879L92.236 30.3749L91.4803 29.72ZM90.0803 30.92L89.4921 30.1113L89.4831 30.1178L89.4743 30.1246L90.0803 30.92ZM88.0803 32L88.4166 32.9417L88.4258 32.9385L88.435 32.935L88.0803 32ZM91.7203 25.12L92.6942 25.3472L92.7203 25.2351V25.12H91.7203ZM91.7203 21.64H92.7203V21.4999L92.6818 21.3653L91.7203 21.64ZM90.6403 19.72L89.8988 20.3909L89.9069 20.3999L89.9153 20.4087L90.6403 19.72ZM88.8003 18.4L88.3813 19.308L88.3877 19.3109L88.3942 19.3138L88.8003 18.4ZM83.8403 18.64L84.3333 19.51L84.3441 19.5039L84.3548 19.4975L83.8403 18.64ZM81.9203 26.28L81.0487 26.7703L81.0545 26.7805L81.0605 26.7905L81.9203 26.28ZM83.9203 28.32L83.3978 29.1726L83.4079 29.1788L83.4182 29.1848L83.9203 28.32ZM85.4803 31.4C84.0465 31.4 82.7753 31.1095 81.6475 30.5456L80.7531 32.3344C82.1853 33.0505 83.7674 33.4 85.4803 33.4V31.4ZM81.6622 30.5531C80.5599 29.9789 79.6843 29.1315 79.0286 27.9839L77.2921 28.9761C78.1296 30.4418 79.2808 31.5677 80.7384 32.3269L81.6622 30.5531ZM79.0286 27.9839C78.3889 26.8645 78.0403 25.433 78.0403 23.64H76.0403C76.0403 25.687 76.4384 27.4822 77.2921 28.9761L79.0286 27.9839ZM78.0403 23.64C78.0403 21.8837 78.3983 20.4349 79.0696 19.2543L77.331 18.2657C76.4557 19.8051 76.0403 21.6097 76.0403 23.64H78.0403ZM79.0622 19.267C79.7796 18.0475 80.6959 17.1386 81.8106 16.5116L80.8301 14.7684C79.3847 15.5814 78.221 16.7525 77.3384 18.253L79.0622 19.267ZM81.8165 16.5082C82.9704 15.8488 84.2125 15.52 85.5603 15.52V13.52C83.8681 13.52 82.2835 13.9378 80.8242 14.7718L81.8165 16.5082ZM85.5603 15.52C87.0193 15.52 88.1124 15.8357 88.9156 16.3853L90.045 14.7347C88.8216 13.8976 87.3013 13.52 85.5603 13.52V15.52ZM88.9406 16.4019C89.8778 17.0026 90.582 17.6925 91.0807 18.4633L92.7599 17.3767C92.0853 16.3342 91.1629 15.4507 90.02 14.7181L88.9406 16.4019ZM91.0042 17.5192L90.7242 18.1592L92.5565 18.9608L92.8365 18.3208L91.0042 17.5192ZM92.6331 18.6796L93.0331 15.3596L91.0475 15.1204L90.6475 18.4404L92.6331 18.6796ZM92.0403 16.24H95.8403V14.24H92.0403V16.24ZM94.8403 15.24V32H96.8403V15.24H94.8403ZM95.8403 31H91.7203V33H95.8403V31ZM92.7203 32V27.8H90.7203V32H92.7203ZM90.805 28.2027L91.245 29.2027L93.0756 28.3973L92.6356 27.3973L90.805 28.2027ZM91.2659 28.3528C91.2198 28.4449 91.0664 28.6707 90.7246 29.0651L92.236 30.3749C92.5876 29.9693 92.8875 29.5817 93.0547 29.2472L91.2659 28.3528ZM90.7475 29.0395C90.4589 29.3503 90.0466 29.708 89.4921 30.1113L90.6685 31.7287C91.2874 31.2786 91.8084 30.8363 92.2131 30.4004L90.7475 29.0395ZM89.4743 30.1246C89.0029 30.4837 88.4242 30.8 87.7257 31.065L88.435 32.935C89.2831 32.6133 90.0377 32.2096 90.6864 31.7154L89.4743 30.1246ZM87.744 31.0583C87.128 31.2783 86.3793 31.4 85.4803 31.4V33.4C86.5547 33.4 87.5393 33.2551 88.4166 32.9417L87.744 31.0583ZM86.6003 30.04C87.603 30.04 88.5361 29.8572 89.3794 29.468L88.5413 27.652C87.9979 27.9028 87.3576 28.04 86.6003 28.04V30.04ZM89.3794 29.468C90.2092 29.0849 90.9176 28.5381 91.4943 27.8332L89.9464 26.5668C89.563 27.0353 89.0981 27.3951 88.5413 27.652L89.3794 29.468ZM91.4943 27.8332C92.079 27.1186 92.4757 26.2834 92.6942 25.3472L90.7465 24.8928C90.5916 25.5566 90.3216 26.1081 89.9464 26.5668L91.4943 27.8332ZM92.7203 25.12V21.64H90.7203V25.12H92.7203ZM92.6818 21.3653C92.4267 20.4724 91.9893 19.688 91.3653 19.0312L89.9153 20.4087C90.3047 20.8186 90.5872 21.3142 90.7588 21.9147L92.6818 21.3653ZM91.3819 19.0491C90.7775 18.3811 90.0483 17.8604 89.2065 17.4862L88.3942 19.3138C88.9923 19.5796 89.4898 19.9389 89.8988 20.3909L91.3819 19.0491ZM89.2194 17.492C88.38 17.1046 87.4613 16.92 86.4803 16.92V18.92C87.206 18.92 87.834 19.0554 88.3813 19.308L89.2194 17.492ZM86.4803 16.92C85.3446 16.92 84.2859 17.2065 83.3258 17.7825L84.3548 19.4975C84.9947 19.1135 85.696 18.92 86.4803 18.92V16.92ZM83.3473 17.77C82.3867 18.3143 81.6209 19.0841 81.0555 20.0579L82.7851 21.0621C83.1797 20.3826 83.694 19.8723 84.3333 19.51L83.3473 17.77ZM81.0555 20.0579C80.4749 21.0579 80.2003 22.1961 80.2003 23.44H82.2003C82.2003 22.4973 82.4058 21.7154 82.7851 21.0621L81.0555 20.0579ZM80.2003 23.44C80.2003 24.6407 80.4793 25.7579 81.0487 26.7703L82.7919 25.7897C82.4013 25.0954 82.2003 24.3193 82.2003 23.44H80.2003ZM81.0605 26.7905C81.6481 27.7802 82.4292 28.579 83.3978 29.1726L84.4429 27.4674C83.7581 27.0477 83.2059 26.4865 82.7802 25.7695L81.0605 26.7905ZM83.4182 29.1848C84.3981 29.7537 85.4647 30.04 86.6003 30.04V28.04C85.8159 28.04 85.0959 27.8463 84.4224 27.4552L83.4182 29.1848ZM102.152 32H101.152V33H102.152V32ZM102.152 0.92V-0.0800004H101.152V0.92H102.152ZM106.272 0.92H107.272V-0.0800004H106.272V0.92ZM106.272 32V33H107.272V32H106.272ZM110.352 20.8L111.177 20.2345L110.543 19.3103L109.697 20.0447L110.352 20.8ZM118.032 32V33H119.93L118.857 31.4345L118.032 32ZM113.232 32L112.387 32.5351L112.682 33H113.232V32ZM107.632 23.16L106.977 22.4047L106.327 22.9684L106.787 23.6951L107.632 23.16ZM104.992 26.84L103.997 26.9405L104.181 28.7619L105.614 27.6229L104.992 26.84ZM104.592 22.88L103.974 22.0943L103.542 22.4341L103.597 22.9805L104.592 22.88ZM114.752 14.88L115.41 14.1267L114.785 13.5813L114.134 14.0943L114.752 14.88ZM117.272 17.08L117.894 17.8629L118.834 17.116L117.93 16.3267L117.272 17.08ZM103.152 32V0.92H101.152V32H103.152ZM102.152 1.92H106.272V-0.0800004H102.152V1.92ZM105.272 0.92V32H107.272V0.92H105.272ZM106.272 31H102.152V33H106.272V31ZM109.527 21.3655L117.207 32.5655L118.857 31.4345L111.177 20.2345L109.527 21.3655ZM118.032 31H113.232V33H118.032V31ZM114.077 31.4649L108.477 22.6249L106.787 23.6951L112.387 32.5351L114.077 31.4649ZM108.288 23.9153L111.008 21.5553L109.697 20.0447L106.977 22.4047L108.288 23.9153ZM105.987 26.7395L105.587 22.7795L103.597 22.9805L103.997 26.9405L105.987 26.7395ZM105.211 23.6657L115.371 15.6657L114.134 14.0943L103.974 22.0943L105.211 23.6657ZM114.095 15.6333L116.615 17.8333L117.93 16.3267L115.41 14.1267L114.095 15.6333ZM116.65 16.2971L104.37 26.0571L105.614 27.6229L117.894 17.8629L116.65 16.2971Z" fill="#FF7562" fill-opacity="0.5" mask="url(#path-1-outside-1_2005_19)"/>
<mask id="path-3-outside-2_2005_19" maskUnits="userSpaceOnUse" x="122" y="0" width="127" height="43" fill="black">
<rect fill="white" x="122" width="127" height="43"/>
<path d="M141.2 9.52C140.187 8.98667 139.093 8.53333 137.92 8.16C136.747 7.78666 135.613 7.6 134.52 7.6C133.027 7.6 131.84 7.94666 130.96 8.64C130.08 9.30666 129.64 10.2267 129.64 11.4C129.64 12.2267 129.933 12.9467 130.52 13.56C131.107 14.1733 131.867 14.7067 132.8 15.16C133.733 15.6133 134.72 16.04 135.76 16.44C136.64 16.76 137.507 17.1467 138.36 17.6C139.24 18.0267 140.027 18.56 140.72 19.2C141.44 19.84 142 20.64 142.4 21.6C142.827 22.5333 143.04 23.68 143.04 25.04C143.04 26.5867 142.653 27.9867 141.88 29.24C141.133 30.4933 140.04 31.4933 138.6 32.24C137.187 32.96 135.467 33.32 133.44 33.32C132.213 33.32 131.013 33.1867 129.84 32.92C128.693 32.6267 127.6 32.2533 126.56 31.8C125.547 31.32 124.627 30.8 123.8 30.24L125.72 26.92C126.36 27.3733 127.093 27.8133 127.92 28.24C128.747 28.64 129.6 28.96 130.48 29.2C131.387 29.44 132.24 29.56 133.04 29.56C133.92 29.56 134.787 29.4133 135.64 29.12C136.493 28.8 137.2 28.32 137.76 27.68C138.32 27.0133 138.6 26.1467 138.6 25.08C138.6 24.1733 138.347 23.4133 137.84 22.8C137.36 22.16 136.707 21.6133 135.88 21.16C135.08 20.7067 134.213 20.3067 133.28 19.96C132.373 19.6133 131.453 19.2267 130.52 18.8C129.587 18.3733 128.72 17.8667 127.92 17.28C127.12 16.6667 126.467 15.92 125.96 15.04C125.48 14.1333 125.24 13.0267 125.24 11.72C125.24 10.1733 125.6 8.82667 126.32 7.68C127.067 6.50667 128.093 5.58667 129.4 4.92C130.707 4.25333 132.213 3.88 133.92 3.8C135.867 3.8 137.56 4.04 139 4.52C140.44 5 141.72 5.57333 142.84 6.24L141.2 9.52ZM158.481 33.4C157.255 33.4 156.081 33.1333 154.961 32.6C153.841 32.04 152.948 31.2933 152.281 30.36L152.521 29.12V41.04H148.441V15.96H152.001L152.561 20.04L152.121 18.88C152.948 17.92 153.961 17.12 155.161 16.48C156.388 15.84 157.748 15.52 159.241 15.52C160.815 15.52 162.228 15.8933 163.481 16.64C164.735 17.3867 165.721 18.44 166.441 19.8C167.161 21.16 167.521 22.76 167.521 24.6C167.521 26.4133 167.121 27.9867 166.321 29.32C165.548 30.6267 164.481 31.64 163.121 32.36C161.761 33.0533 160.215 33.4 158.481 33.4ZM157.681 30.16C158.695 30.16 159.628 29.92 160.481 29.44C161.361 28.96 162.055 28.3067 162.561 27.48C163.095 26.6267 163.361 25.68 163.361 24.64C163.361 23.5467 163.108 22.5867 162.601 21.76C162.121 20.9067 161.468 20.24 160.641 19.76C159.841 19.28 158.948 19.04 157.961 19.04C157.028 19.04 156.201 19.2133 155.481 19.56C154.761 19.88 154.148 20.3333 153.641 20.92C153.135 21.5067 152.775 22.2133 152.561 23.04V26.12C152.721 26.8933 153.041 27.5867 153.521 28.2C154.001 28.8133 154.601 29.2933 155.321 29.64C156.041 29.9867 156.828 30.16 157.681 30.16ZM172.387 33V1.92H176.387V20.04L176.347 19.36C176.907 18.2667 177.76 17.36 178.907 16.64C180.053 15.92 181.427 15.56 183.027 15.56C184.6 15.56 185.893 16.0267 186.907 16.96C187.947 17.8933 188.48 19.1067 188.507 20.6V33H184.387V22.04C184.36 21.1867 184.107 20.4933 183.627 19.96C183.147 19.4 182.4 19.1067 181.387 19.08C180.48 19.08 179.653 19.36 178.907 19.92C178.16 20.4533 177.573 21.2 177.147 22.16C176.72 23.0933 176.507 24.16 176.507 25.36V33H172.387ZM202.688 33.4C200.742 33.4 199.075 33.0267 197.688 32.28C196.302 31.5067 195.235 30.4533 194.488 29.12C193.742 27.76 193.368 26.2133 193.368 24.48C193.368 22.8267 193.782 21.3333 194.608 20C195.462 18.64 196.595 17.56 198.008 16.76C199.448 15.96 201.035 15.56 202.768 15.56C205.008 15.56 206.862 16.2133 208.328 17.52C209.822 18.8267 210.822 20.6533 211.328 23L197.688 27.72L196.728 25.32L207.648 21.4L206.808 21.92C206.488 21.0933 205.982 20.3733 205.288 19.76C204.595 19.12 203.648 18.8 202.448 18.8C201.488 18.8 200.622 19.04 199.848 19.52C199.102 19.9733 198.502 20.6133 198.048 21.44C197.622 22.24 197.408 23.1867 197.408 24.28C197.408 25.4 197.635 26.3867 198.088 27.24C198.568 28.0667 199.208 28.72 200.008 29.2C200.835 29.68 201.755 29.92 202.768 29.92C203.488 29.92 204.168 29.7867 204.808 29.52C205.475 29.2533 206.102 28.92 206.688 28.52L208.568 31.56C207.688 32.12 206.728 32.5733 205.688 32.92C204.675 33.24 203.675 33.4 202.688 33.4ZM219.582 16.24L219.982 21.04L219.782 20.4C220.236 19.3867 220.876 18.52 221.702 17.8C222.529 17.08 223.382 16.5333 224.262 16.16C225.169 15.76 225.929 15.56 226.542 15.56L226.342 19.64C225.062 19.56 223.942 19.8 222.982 20.36C222.049 20.92 221.316 21.6667 220.782 22.6C220.249 23.5333 219.982 24.5333 219.982 25.6V33H215.902V16.24H219.582ZM238.392 33.4C236.445 33.4 234.778 33.0267 233.392 32.28C232.005 31.5067 230.938 30.4533 230.192 29.12C229.445 27.76 229.072 26.2133 229.072 24.48C229.072 22.8267 229.485 21.3333 230.312 20C231.165 18.64 232.298 17.56 233.712 16.76C235.152 15.96 236.738 15.56 238.472 15.56C240.712 15.56 242.565 16.2133 244.032 17.52C245.525 18.8267 246.525 20.6533 247.032 23L233.392 27.72L232.432 25.32L243.352 21.4L242.512 21.92C242.192 21.0933 241.685 20.3733 240.992 19.76C240.298 19.12 239.352 18.8 238.152 18.8C237.192 18.8 236.325 19.04 235.552 19.52C234.805 19.9733 234.205 20.6133 233.752 21.44C233.325 22.24 233.112 23.1867 233.112 24.28C233.112 25.4 233.338 26.3867 233.792 27.24C234.272 28.0667 234.912 28.72 235.712 29.2C236.538 29.68 237.458 29.92 238.472 29.92C239.192 29.92 239.872 29.7867 240.512 29.52C241.178 29.2533 241.805 28.92 242.392 28.52L244.272 31.56C243.392 32.12 242.432 32.5733 241.392 32.92C240.378 33.24 239.378 33.4 238.392 33.4Z"/>
</mask>
<path d="M141.2 9.52C140.187 8.98667 139.093 8.53333 137.92 8.16C136.747 7.78666 135.613 7.6 134.52 7.6C133.027 7.6 131.84 7.94666 130.96 8.64C130.08 9.30666 129.64 10.2267 129.64 11.4C129.64 12.2267 129.933 12.9467 130.52 13.56C131.107 14.1733 131.867 14.7067 132.8 15.16C133.733 15.6133 134.72 16.04 135.76 16.44C136.64 16.76 137.507 17.1467 138.36 17.6C139.24 18.0267 140.027 18.56 140.72 19.2C141.44 19.84 142 20.64 142.4 21.6C142.827 22.5333 143.04 23.68 143.04 25.04C143.04 26.5867 142.653 27.9867 141.88 29.24C141.133 30.4933 140.04 31.4933 138.6 32.24C137.187 32.96 135.467 33.32 133.44 33.32C132.213 33.32 131.013 33.1867 129.84 32.92C128.693 32.6267 127.6 32.2533 126.56 31.8C125.547 31.32 124.627 30.8 123.8 30.24L125.72 26.92C126.36 27.3733 127.093 27.8133 127.92 28.24C128.747 28.64 129.6 28.96 130.48 29.2C131.387 29.44 132.24 29.56 133.04 29.56C133.92 29.56 134.787 29.4133 135.64 29.12C136.493 28.8 137.2 28.32 137.76 27.68C138.32 27.0133 138.6 26.1467 138.6 25.08C138.6 24.1733 138.347 23.4133 137.84 22.8C137.36 22.16 136.707 21.6133 135.88 21.16C135.08 20.7067 134.213 20.3067 133.28 19.96C132.373 19.6133 131.453 19.2267 130.52 18.8C129.587 18.3733 128.72 17.8667 127.92 17.28C127.12 16.6667 126.467 15.92 125.96 15.04C125.48 14.1333 125.24 13.0267 125.24 11.72C125.24 10.1733 125.6 8.82667 126.32 7.68C127.067 6.50667 128.093 5.58667 129.4 4.92C130.707 4.25333 132.213 3.88 133.92 3.8C135.867 3.8 137.56 4.04 139 4.52C140.44 5 141.72 5.57333 142.84 6.24L141.2 9.52ZM158.481 33.4C157.255 33.4 156.081 33.1333 154.961 32.6C153.841 32.04 152.948 31.2933 152.281 30.36L152.521 29.12V41.04H148.441V15.96H152.001L152.561 20.04L152.121 18.88C152.948 17.92 153.961 17.12 155.161 16.48C156.388 15.84 157.748 15.52 159.241 15.52C160.815 15.52 162.228 15.8933 163.481 16.64C164.735 17.3867 165.721 18.44 166.441 19.8C167.161 21.16 167.521 22.76 167.521 24.6C167.521 26.4133 167.121 27.9867 166.321 29.32C165.548 30.6267 164.481 31.64 163.121 32.36C161.761 33.0533 160.215 33.4 158.481 33.4ZM157.681 30.16C158.695 30.16 159.628 29.92 160.481 29.44C161.361 28.96 162.055 28.3067 162.561 27.48C163.095 26.6267 163.361 25.68 163.361 24.64C163.361 23.5467 163.108 22.5867 162.601 21.76C162.121 20.9067 161.468 20.24 160.641 19.76C159.841 19.28 158.948 19.04 157.961 19.04C157.028 19.04 156.201 19.2133 155.481 19.56C154.761 19.88 154.148 20.3333 153.641 20.92C153.135 21.5067 152.775 22.2133 152.561 23.04V26.12C152.721 26.8933 153.041 27.5867 153.521 28.2C154.001 28.8133 154.601 29.2933 155.321 29.64C156.041 29.9867 156.828 30.16 157.681 30.16ZM172.387 33V1.92H176.387V20.04L176.347 19.36C176.907 18.2667 177.76 17.36 178.907 16.64C180.053 15.92 181.427 15.56 183.027 15.56C184.6 15.56 185.893 16.0267 186.907 16.96C187.947 17.8933 188.48 19.1067 188.507 20.6V33H184.387V22.04C184.36 21.1867 184.107 20.4933 183.627 19.96C183.147 19.4 182.4 19.1067 181.387 19.08C180.48 19.08 179.653 19.36 178.907 19.92C178.16 20.4533 177.573 21.2 177.147 22.16C176.72 23.0933 176.507 24.16 176.507 25.36V33H172.387ZM202.688 33.4C200.742 33.4 199.075 33.0267 197.688 32.28C196.302 31.5067 195.235 30.4533 194.488 29.12C193.742 27.76 193.368 26.2133 193.368 24.48C193.368 22.8267 193.782 21.3333 194.608 20C195.462 18.64 196.595 17.56 198.008 16.76C199.448 15.96 201.035 15.56 202.768 15.56C205.008 15.56 206.862 16.2133 208.328 17.52C209.822 18.8267 210.822 20.6533 211.328 23L197.688 27.72L196.728 25.32L207.648 21.4L206.808 21.92C206.488 21.0933 205.982 20.3733 205.288 19.76C204.595 19.12 203.648 18.8 202.448 18.8C201.488 18.8 200.622 19.04 199.848 19.52C199.102 19.9733 198.502 20.6133 198.048 21.44C197.622 22.24 197.408 23.1867 197.408 24.28C197.408 25.4 197.635 26.3867 198.088 27.24C198.568 28.0667 199.208 28.72 200.008 29.2C200.835 29.68 201.755 29.92 202.768 29.92C203.488 29.92 204.168 29.7867 204.808 29.52C205.475 29.2533 206.102 28.92 206.688 28.52L208.568 31.56C207.688 32.12 206.728 32.5733 205.688 32.92C204.675 33.24 203.675 33.4 202.688 33.4ZM219.582 16.24L219.982 21.04L219.782 20.4C220.236 19.3867 220.876 18.52 221.702 17.8C222.529 17.08 223.382 16.5333 224.262 16.16C225.169 15.76 225.929 15.56 226.542 15.56L226.342 19.64C225.062 19.56 223.942 19.8 222.982 20.36C222.049 20.92 221.316 21.6667 220.782 22.6C220.249 23.5333 219.982 24.5333 219.982 25.6V33H215.902V16.24H219.582ZM238.392 33.4C236.445 33.4 234.778 33.0267 233.392 32.28C232.005 31.5067 230.938 30.4533 230.192 29.12C229.445 27.76 229.072 26.2133 229.072 24.48C229.072 22.8267 229.485 21.3333 230.312 20C231.165 18.64 232.298 17.56 233.712 16.76C235.152 15.96 236.738 15.56 238.472 15.56C240.712 15.56 242.565 16.2133 244.032 17.52C245.525 18.8267 246.525 20.6533 247.032 23L233.392 27.72L232.432 25.32L243.352 21.4L242.512 21.92C242.192 21.0933 241.685 20.3733 240.992 19.76C240.298 19.12 239.352 18.8 238.152 18.8C237.192 18.8 236.325 19.04 235.552 19.52C234.805 19.9733 234.205 20.6133 233.752 21.44C233.325 22.24 233.112 23.1867 233.112 24.28C233.112 25.4 233.338 26.3867 233.792 27.24C234.272 28.0667 234.912 28.72 235.712 29.2C236.538 29.68 237.458 29.92 238.472 29.92C239.192 29.92 239.872 29.7867 240.512 29.52C241.178 29.2533 241.805 28.92 242.392 28.52L244.272 31.56C243.392 32.12 242.432 32.5733 241.392 32.92C240.378 33.24 239.378 33.4 238.392 33.4Z" fill="#FF7562" fill-opacity="0.5"/>
<path d="M141.2 9.52L140.734 10.4049L141.638 10.8805L142.094 9.96721L141.2 9.52ZM137.92 8.16L138.223 7.20707L137.92 8.16ZM130.96 8.64L131.564 9.43709L131.571 9.43136L131.579 9.42549L130.96 8.64ZM130.52 13.56L131.243 12.8688V12.8688L130.52 13.56ZM132.8 15.16L132.363 16.0595V16.0595L132.8 15.16ZM135.76 16.44L135.401 17.3733L135.41 17.3766L135.418 17.3798L135.76 16.44ZM138.36 17.6L137.891 18.4831L137.907 18.4918L137.924 18.4998L138.36 17.6ZM140.72 19.2L140.042 19.9348L140.049 19.9412L140.056 19.9474L140.72 19.2ZM142.4 21.6L141.477 21.9846L141.483 22.0003L141.491 22.0158L142.4 21.6ZM141.88 29.24L141.029 28.7149L141.025 28.7215L141.021 28.7282L141.88 29.24ZM138.6 32.24L139.054 33.1311L139.06 33.1278L138.6 32.24ZM129.84 32.92L129.592 33.8888L129.605 33.8921L129.618 33.8951L129.84 32.92ZM126.56 31.8L126.132 32.7037L126.146 32.7104L126.16 32.7167L126.56 31.8ZM123.8 30.24L122.934 29.7394L122.468 30.5456L123.239 31.0679L123.8 30.24ZM125.72 26.92L126.298 26.104L125.403 25.4702L124.854 26.4194L125.72 26.92ZM127.92 28.24L127.461 29.1286L127.473 29.1345L127.484 29.1402L127.92 28.24ZM130.48 29.2L130.217 30.1648L130.224 30.1667L130.48 29.2ZM135.64 29.12L135.965 30.0657L135.978 30.0612L135.991 30.0563L135.64 29.12ZM137.76 27.68L138.513 28.3385L138.519 28.3309L138.526 28.3232L137.76 27.68ZM137.84 22.8L137.04 23.4L137.054 23.4188L137.069 23.4369L137.84 22.8ZM135.88 21.16L135.387 22.0301L135.399 22.0368L135.88 21.16ZM133.28 19.96L132.923 20.8941L132.932 20.8974L133.28 19.96ZM130.52 18.8L130.936 17.8905L130.52 18.8ZM127.92 17.28L127.312 18.0736L127.32 18.0801L127.329 18.0864L127.92 17.28ZM125.96 15.04L125.076 15.5079L125.085 15.5236L125.093 15.539L125.96 15.04ZM126.32 7.68L125.476 7.14311L125.473 7.14823L126.32 7.68ZM129.4 4.92L129.854 5.81076L129.854 5.81076L129.4 4.92ZM133.92 3.8V2.8H133.897L133.873 2.8011L133.92 3.8ZM139 4.52L138.684 5.46868L139 4.52ZM142.84 6.24L143.734 6.68721L144.15 5.85603L143.351 5.38071L142.84 6.24ZM141.666 8.63508C140.597 8.07238 139.448 7.59692 138.223 7.20707L137.617 9.11292C138.738 9.46974 139.777 9.90095 140.734 10.4049L141.666 8.63508ZM138.223 7.20707C136.964 6.80642 135.728 6.6 134.52 6.6V8.6C135.498 8.6 136.529 8.7669 137.617 9.11292L138.223 7.20707ZM134.52 6.6C132.877 6.6 131.448 6.98215 130.341 7.85451L131.579 9.42549C132.232 8.91118 133.176 8.6 134.52 8.6V6.6ZM130.356 7.84291C129.209 8.71201 128.64 9.93647 128.64 11.4H130.64C130.64 10.5169 130.951 9.90132 131.564 9.43709L130.356 7.84291ZM128.64 11.4C128.64 12.4917 129.038 13.4573 129.797 14.2512L131.243 12.8688C130.829 12.436 130.64 11.9616 130.64 11.4H128.64ZM129.797 14.2512C130.482 14.9671 131.346 15.5654 132.363 16.0595L133.237 14.2605C132.387 13.8479 131.731 13.3795 131.243 12.8688L129.797 14.2512ZM132.363 16.0595C133.324 16.5261 134.336 16.9639 135.401 17.3733L136.119 15.5067C135.104 15.1161 134.143 14.7006 133.237 14.2605L132.363 16.0595ZM135.418 17.3798C136.253 17.6834 137.077 18.0509 137.891 18.4831L138.829 16.7169C137.936 16.2424 137.027 15.8366 136.102 15.5002L135.418 17.3798ZM137.924 18.4998C138.719 18.8852 139.423 19.3638 140.042 19.9348L141.398 18.4652C140.63 17.7562 139.761 17.1681 138.796 16.7002L137.924 18.4998ZM140.056 19.9474C140.654 20.4797 141.13 21.1522 141.477 21.9846L143.323 21.2154C142.87 20.1278 142.226 19.2003 141.384 18.4526L140.056 19.9474ZM141.491 22.0158C141.841 22.7835 142.04 23.779 142.04 25.04H144.04C144.04 23.581 143.812 22.2832 143.309 21.1842L141.491 22.0158ZM142.04 25.04C142.04 26.411 141.7 27.6275 141.029 28.7149L142.731 29.7651C143.607 28.3458 144.04 26.7624 144.04 25.04H142.04ZM141.021 28.7282C140.38 29.804 139.433 30.6814 138.14 31.3522L139.06 33.1278C140.647 32.3052 141.887 31.1826 142.739 29.7518L141.021 28.7282ZM138.146 31.349C136.907 31.9802 135.351 32.32 133.44 32.32V34.32C135.582 34.32 137.466 33.9398 139.054 33.131L138.146 31.349ZM133.44 32.32C132.286 32.32 131.161 32.1947 130.062 31.9449L129.618 33.8951C130.866 34.1786 132.14 34.32 133.44 34.32V32.32ZM130.088 31.9512C128.991 31.6706 127.948 31.3143 126.96 30.8833L126.16 32.7167C127.252 33.1923 128.396 33.5828 129.592 33.8888L130.088 31.9512ZM126.988 30.8963C126.015 30.4355 125.14 29.9402 124.361 29.4121L123.239 31.0679C124.113 31.6598 125.078 32.2045 126.132 32.7037L126.988 30.8963ZM124.666 30.7406L126.586 27.4206L124.854 26.4194L122.934 29.7394L124.666 30.7406ZM125.142 27.736C125.826 28.2207 126.601 28.6844 127.461 29.1286L128.379 27.3514C127.586 26.9423 126.894 26.5259 126.298 26.104L125.142 27.736ZM127.484 29.1402C128.366 29.5668 129.277 29.9085 130.217 30.1648L130.743 28.2352C129.923 28.0115 129.127 27.7132 128.356 27.3398L127.484 29.1402ZM130.224 30.1667C131.2 30.4251 132.14 30.56 133.04 30.56V28.56C132.34 28.56 131.573 28.4549 130.736 28.2333L130.224 30.1667ZM133.04 30.56C134.033 30.56 135.01 30.3941 135.965 30.0657L135.315 28.1743C134.564 28.4326 133.807 28.56 133.04 28.56V30.56ZM135.991 30.0563C136.988 29.6826 137.836 29.1117 138.513 28.3385L137.007 27.0215C136.564 27.5283 135.999 27.9174 135.289 28.1837L135.991 30.0563ZM138.526 28.3232C139.269 27.4384 139.6 26.327 139.6 25.08H137.6C137.6 25.9663 137.371 26.5883 136.994 27.0368L138.526 28.3232ZM139.6 25.08C139.6 23.9752 139.286 22.9805 138.611 22.1631L137.069 23.4369C137.407 23.8462 137.6 24.3715 137.6 25.08H139.6ZM138.64 22.2C138.061 21.4275 137.29 20.7929 136.361 20.2832L135.399 22.0368C136.123 22.4337 136.659 22.8925 137.04 23.4L138.64 22.2ZM136.373 20.29C135.523 19.8083 134.607 19.3863 133.628 19.0226L132.932 20.8974C133.819 21.227 134.637 21.605 135.387 22.03L136.373 20.29ZM133.637 19.0259C132.751 18.6873 131.851 18.3089 130.936 17.8905L130.104 19.7095C131.056 20.1445 131.995 20.5394 132.923 20.8941L133.637 19.0259ZM130.936 17.8905C130.062 17.4912 129.255 17.0187 128.511 16.4736L127.329 18.0864C128.185 18.7147 129.111 19.2555 130.104 19.7095L130.936 17.8905ZM128.528 16.4864C127.834 15.9539 127.268 15.3076 126.827 14.541L125.093 15.539C125.665 16.5324 126.406 17.3794 127.312 18.0736L128.528 16.4864ZM126.844 14.5721C126.458 13.8437 126.24 12.9071 126.24 11.72H124.24C124.24 13.1462 124.502 14.423 125.076 15.5079L126.844 14.5721ZM126.24 11.72C126.24 10.334 126.561 9.17738 127.167 8.21177L125.473 7.14823C124.639 8.47595 124.24 10.0126 124.24 11.72H126.24ZM127.164 8.21687C127.809 7.20248 128.698 6.40093 129.854 5.81076L128.946 4.02924C127.489 4.7724 126.324 5.81085 125.476 7.14312L127.164 8.21687ZM129.854 5.81076C131.015 5.2185 132.379 4.87333 133.967 4.7989L133.873 2.8011C132.048 2.88666 130.398 3.28817 128.946 4.02924L129.854 5.81076ZM133.92 4.8C135.788 4.8 137.37 5.03072 138.684 5.46868L139.316 3.57132C137.75 3.04928 135.945 2.8 133.92 2.8V4.8ZM138.684 5.46868C140.067 5.9296 141.279 6.47476 142.329 7.09929L143.351 5.38071C142.161 4.6719 140.813 4.0704 139.316 3.57132L138.684 5.46868ZM141.946 5.79279L140.306 9.07279L142.094 9.96721L143.734 6.68721L141.946 5.79279ZM154.961 32.6L154.514 33.4944L154.523 33.4987L154.531 33.5029L154.961 32.6ZM152.281 30.36L151.299 30.17L151.218 30.5917L151.468 30.9412L152.281 30.36ZM152.521 29.12H153.521L151.539 28.93L152.521 29.12ZM152.521 41.04V42.04H153.521V41.04H152.521ZM148.441 41.04H147.441V42.04H148.441V41.04ZM148.441 15.96V14.96H147.441V15.96H148.441ZM152.001 15.96L152.992 15.824L152.873 14.96H152.001V15.96ZM152.561 20.04L151.626 20.3947L153.552 19.904L152.561 20.04ZM152.121 18.88L151.363 18.2275L150.975 18.6783L151.186 19.2347L152.121 18.88ZM155.161 16.48L154.699 15.5934L154.691 15.5976L155.161 16.48ZM163.481 16.64L162.969 17.4991V17.4991L163.481 16.64ZM166.321 29.32L165.464 28.8055L165.461 28.8107L166.321 29.32ZM163.121 32.36L163.575 33.2509L163.582 33.2474L163.589 33.2438L163.121 32.36ZM160.481 29.44L160.002 28.562L159.991 28.5684L160.481 29.44ZM162.561 27.48L161.713 26.95L161.709 26.9574L162.561 27.48ZM162.601 21.76L161.73 22.2503L161.739 22.2666L161.749 22.2826L162.601 21.76ZM160.641 19.76L160.127 20.6175L160.133 20.6212L160.139 20.6248L160.641 19.76ZM155.481 19.56L155.887 20.4738L155.901 20.4676L155.915 20.461L155.481 19.56ZM153.641 20.92L152.884 20.2664L152.884 20.2664L153.641 20.92ZM152.561 23.04L151.593 22.7901L151.561 22.913V23.04H152.561ZM152.561 26.12H151.561V26.2224L151.582 26.3226L152.561 26.12ZM153.521 28.2L154.309 27.5837V27.5837L153.521 28.2ZM155.321 29.64L155.755 28.739L155.321 29.64ZM158.481 32.4C157.405 32.4 156.378 32.1673 155.391 31.6971L154.531 33.5029C155.784 34.0994 157.104 34.4 158.481 34.4V32.4ZM155.408 31.7056C154.421 31.2117 153.658 30.5675 153.095 29.7788L151.468 30.9412C152.237 32.0192 153.262 32.8683 154.514 33.4944L155.408 31.7056ZM153.263 30.55L153.503 29.31L151.539 28.93L151.299 30.17L153.263 30.55ZM151.521 29.12V41.04H153.521V29.12H151.521ZM152.521 40.04H148.441V42.04H152.521V40.04ZM149.441 41.04V15.96H147.441V41.04H149.441ZM148.441 16.96H152.001V14.96H148.441V16.96ZM151.011 16.096L151.571 20.176L153.552 19.904L152.992 15.824L151.011 16.096ZM153.496 19.6853L153.056 18.5253L151.186 19.2347L151.626 20.3947L153.496 19.6853ZM152.879 19.5325C153.619 18.6729 154.533 17.9485 155.632 17.3624L154.691 15.5976C153.39 16.2915 152.277 17.1671 151.363 18.2275L152.879 19.5325ZM155.624 17.3666C156.697 16.8069 157.896 16.52 159.241 16.52V14.52C157.6 14.52 156.079 14.8731 154.699 15.5934L155.624 17.3666ZM159.241 16.52C160.649 16.52 161.883 16.8519 162.969 17.4991L163.993 15.7809C162.573 14.9348 160.98 14.52 159.241 14.52V16.52ZM162.969 17.4991C164.056 18.1467 164.918 19.0607 165.557 20.2679L167.325 19.3321C166.524 17.8193 165.413 16.6266 163.993 15.7809L162.969 17.4991ZM165.557 20.2679C166.188 21.4581 166.521 22.8913 166.521 24.6H168.521C168.521 22.6287 168.135 20.8619 167.325 19.3321L165.557 20.2679ZM166.521 24.6C166.521 26.2626 166.156 27.6518 165.464 28.8055L167.179 29.8345C168.087 28.3215 168.521 26.5641 168.521 24.6H166.521ZM165.461 28.8107C164.783 29.9565 163.853 30.8412 162.653 31.4762L163.589 33.2438C165.11 32.4388 166.313 31.2969 167.182 29.8293L165.461 28.8107ZM162.667 31.4691C161.466 32.0815 160.078 32.4 158.481 32.4V34.4C160.351 34.4 162.057 34.0251 163.575 33.2509L162.667 31.4691ZM157.681 31.16C158.86 31.16 159.963 30.8788 160.972 30.3116L159.991 28.5684C159.293 28.9612 158.529 29.16 157.681 29.16V31.16ZM160.96 30.3179C161.988 29.7571 162.813 28.9835 163.414 28.0026L161.709 26.9574C161.297 27.6298 160.734 28.1629 160.002 28.5621L160.96 30.3179ZM163.409 28.01C164.045 26.9922 164.361 25.8608 164.361 24.64H162.361C162.361 25.4992 162.144 26.2611 161.713 26.95L163.409 28.01ZM164.361 24.64C164.361 23.3864 164.069 22.2407 163.454 21.2374L161.749 22.2826C162.147 22.9326 162.361 23.707 162.361 24.64H164.361ZM163.473 21.2697C162.908 20.2648 162.128 19.4671 161.143 18.8952L160.139 20.6248C160.808 21.0129 161.335 21.5486 161.73 22.2503L163.473 21.2697ZM161.156 18.9025C160.191 18.3238 159.118 18.04 157.961 18.04V20.04C158.778 20.04 159.491 20.2362 160.127 20.6175L161.156 18.9025ZM157.961 18.04C156.903 18.04 155.924 18.2371 155.047 18.659L155.915 20.461C156.479 20.1896 157.153 20.04 157.961 20.04V18.04ZM155.075 18.6462C154.223 19.025 153.489 19.5663 152.884 20.2664L154.398 21.5736C154.807 21.1003 155.3 20.735 155.887 20.4738L155.075 18.6462ZM152.884 20.2664C152.267 20.981 151.841 21.8297 151.593 22.7901L153.53 23.2899C153.708 22.5969 154.002 22.0324 154.398 21.5736L152.884 20.2664ZM151.561 23.04V26.12H153.561V23.04H151.561ZM151.582 26.3226C151.773 27.2446 152.157 28.0799 152.734 28.8163L154.309 27.5837C153.925 27.0934 153.67 26.5421 153.541 25.9174L151.582 26.3226ZM152.734 28.8163C153.311 29.5536 154.033 30.1296 154.887 30.541L155.755 28.739C155.17 28.4571 154.692 28.0731 154.309 27.5837L152.734 28.8163ZM154.887 30.541C155.752 30.9572 156.688 31.16 157.681 31.16V29.16C156.968 29.16 156.331 29.0161 155.755 28.739L154.887 30.541ZM172.387 33H171.387V34H172.387V33ZM172.387 1.92V0.92H171.387V1.92H172.387ZM176.387 1.92H177.387V0.92H176.387V1.92ZM176.387 20.04L175.388 20.0987L177.387 20.04H176.387ZM176.347 19.36L175.457 18.9041L175.332 19.1467L175.348 19.4187L176.347 19.36ZM178.907 16.64L179.438 17.4869L178.907 16.64ZM186.907 16.96L186.229 17.6956L186.239 17.7042L186.907 16.96ZM188.507 20.6H189.507V20.5911L189.506 20.5821L188.507 20.6ZM188.507 33V34H189.507V33H188.507ZM184.387 33H183.387V34H184.387V33ZM184.387 22.04H185.387V22.0244L185.386 22.0088L184.387 22.04ZM183.627 19.96L182.867 20.6108L182.875 20.62L182.883 20.629L183.627 19.96ZM181.387 19.08L181.413 18.0803L181.4 18.08H181.387V19.08ZM178.907 19.92L179.488 20.7337L179.497 20.727L179.507 20.72L178.907 19.92ZM177.147 22.16L178.056 22.5758L178.06 22.5661L177.147 22.16ZM176.507 33V34H177.507V33H176.507ZM173.387 33V1.92H171.387V33H173.387ZM172.387 2.92H176.387V0.92H172.387V2.92ZM175.387 1.92V20.04H177.387V1.92H175.387ZM177.385 19.9813L177.345 19.3013L175.348 19.4187L175.388 20.0987L177.385 19.9813ZM177.237 19.8159C177.706 18.8988 178.428 18.1212 179.438 17.4869L178.375 15.7931C177.092 16.5988 176.107 17.6345 175.457 18.9041L177.237 19.8159ZM179.438 17.4869C180.399 16.8839 181.58 16.56 183.027 16.56V14.56C181.273 14.56 179.708 14.9561 178.375 15.7931L179.438 17.4869ZM183.027 16.56C184.387 16.56 185.427 16.9565 186.229 17.6955L187.584 16.2245C186.36 15.0968 184.813 14.56 183.027 14.56V16.56ZM186.239 17.7042C187.057 18.4382 187.485 19.3808 187.507 20.6179L189.506 20.5821C189.475 18.8325 188.837 17.3485 187.574 16.2158L186.239 17.7042ZM187.507 20.6V33H189.507V20.6H187.507ZM188.507 32H184.387V34H188.507V32ZM185.387 33V22.04H183.387V33H185.387ZM185.386 22.0088C185.353 20.9662 185.037 20.032 184.37 19.291L182.883 20.629C183.176 20.9547 183.366 21.4071 183.387 22.0712L185.386 22.0088ZM184.386 19.3092C183.661 18.4633 182.599 18.1116 181.413 18.0803L181.36 20.0797C182.201 20.1018 182.632 20.3367 182.867 20.6108L184.386 19.3092ZM181.387 18.08C180.257 18.08 179.221 18.4343 178.307 19.12L179.507 20.72C180.086 20.2857 180.703 20.08 181.387 20.08V18.08ZM178.325 19.1063C177.413 19.7576 176.721 20.6548 176.233 21.7539L178.06 22.5661C178.425 21.7452 178.906 21.149 179.488 20.7337L178.325 19.1063ZM176.237 21.7442C175.742 22.8283 175.507 24.0406 175.507 25.36H177.507C177.507 24.2794 177.698 23.3583 178.056 22.5758L176.237 21.7442ZM175.507 25.36V33H177.507V25.36H175.507ZM176.507 32H172.387V34H176.507V32ZM197.688 32.28L197.201 33.1534L197.208 33.157L197.214 33.1605L197.688 32.28ZM194.488 29.12L193.612 29.6013L193.616 29.6086L194.488 29.12ZM194.608 20L193.761 19.4685L193.759 19.4731L194.608 20ZM198.008 16.76L197.523 15.8858L197.516 15.8897L198.008 16.76ZM208.328 17.52L207.663 18.2667L207.67 18.2726L208.328 17.52ZM211.328 23L211.655 23.945L212.493 23.6552L212.306 22.789L211.328 23ZM197.688 27.72L196.76 28.0914L197.114 28.9769L198.015 28.665L197.688 27.72ZM196.728 25.32L196.391 24.3788L195.415 24.729L195.8 25.6914L196.728 25.32ZM207.648 21.4L208.175 22.2503L207.311 20.4588L207.648 21.4ZM206.808 21.92L205.876 22.281L206.311 23.4042L207.335 22.7703L206.808 21.92ZM205.288 19.76L204.61 20.4948L204.618 20.502L204.626 20.509L205.288 19.76ZM199.848 19.52L200.367 20.3748L200.376 20.3696L199.848 19.52ZM198.048 21.44L197.172 20.9591L197.166 20.9694L198.048 21.44ZM198.088 27.24L197.205 27.7092L197.214 27.7258L197.224 27.7421L198.088 27.24ZM200.008 29.2L199.494 30.0575L199.5 30.0612L199.506 30.0648L200.008 29.2ZM204.808 29.52L204.437 28.5915L204.43 28.5942L204.424 28.5969L204.808 29.52ZM206.688 28.52L207.539 27.994L206.989 27.1048L206.125 27.6938L206.688 28.52ZM208.568 31.56L209.105 32.4037L209.938 31.8737L209.419 31.034L208.568 31.56ZM205.688 32.92L205.99 33.8736L205.997 33.8712L206.005 33.8687L205.688 32.92ZM202.688 32.4C200.869 32.4 199.373 32.0513 198.163 31.3995L197.214 33.1605C198.777 34.002 200.615 34.4 202.688 34.4V32.4ZM198.176 31.4066C196.944 30.7197 196.014 29.7968 195.361 28.6314L193.616 29.6086C194.457 31.1099 195.66 32.2936 197.201 33.1534L198.176 31.4066ZM195.365 28.6387C194.708 27.4429 194.368 26.0652 194.368 24.48H192.368C192.368 26.3615 192.775 28.0771 193.612 29.6013L195.365 28.6387ZM194.368 24.48C194.368 23.0024 194.735 21.6933 195.458 20.5269L193.759 19.4731C192.828 20.9733 192.368 22.651 192.368 24.48H194.368ZM195.455 20.5315C196.22 19.3138 197.23 18.3495 198.501 17.6303L197.516 15.8897C195.96 16.7705 194.704 17.9662 193.761 19.4685L195.455 20.5315ZM198.494 17.6342C199.778 16.921 201.196 16.56 202.768 16.56V14.56C200.874 14.56 199.119 14.999 197.523 15.8858L198.494 17.6342ZM202.768 16.56C204.8 16.56 206.405 17.1461 207.663 18.2667L208.994 16.7733C207.318 15.2806 205.217 14.56 202.768 14.56V16.56ZM207.67 18.2726C208.97 19.41 209.88 21.0293 210.351 23.211L212.306 22.789C211.764 20.2774 210.674 18.2433 208.987 16.7674L207.67 18.2726ZM211.001 22.055L197.361 26.775L198.015 28.665L211.655 23.945L211.001 22.055ZM198.617 27.3486L197.657 24.9486L195.8 25.6914L196.76 28.0914L198.617 27.3486ZM197.066 26.2612L207.986 22.3412L207.311 20.4588L196.391 24.3788L197.066 26.2612ZM207.122 20.5497L206.282 21.0697L207.335 22.7703L208.175 22.2503L207.122 20.5497ZM207.741 21.559C207.361 20.5766 206.759 19.7254 205.951 19.011L204.626 20.509C205.205 21.0213 205.616 21.61 205.876 22.281L207.741 21.559ZM205.967 19.0252C205.042 18.172 203.829 17.8 202.448 17.8V19.8C203.468 19.8 204.148 20.068 204.61 20.4948L205.967 19.0252ZM202.448 17.8C201.313 17.8 200.262 18.0866 199.321 18.6704L200.376 20.3696C200.982 19.9934 201.664 19.8 202.448 19.8V17.8ZM199.329 18.6652C198.421 19.2168 197.702 19.9912 197.172 20.9592L198.925 21.9208C199.301 21.2355 199.783 20.7298 200.367 20.3748L199.329 18.6652ZM197.166 20.9694C196.648 21.9412 196.408 23.0561 196.408 24.28H198.408C198.408 23.3173 198.596 22.5388 198.931 21.9106L197.166 20.9694ZM196.408 24.28C196.408 25.5374 196.664 26.6899 197.205 27.7092L198.972 26.7708C198.606 26.0834 198.408 25.2626 198.408 24.28H196.408ZM197.224 27.7421C197.786 28.7112 198.545 29.4883 199.494 30.0575L200.523 28.3425C199.872 27.9517 199.351 27.4221 198.953 26.7379L197.224 27.7421ZM199.506 30.0648C200.495 30.6387 201.59 30.92 202.768 30.92V28.92C201.92 28.92 201.175 28.7213 200.511 28.3352L199.506 30.0648ZM202.768 30.92C203.615 30.92 204.426 30.7625 205.193 30.4431L204.424 28.5969C203.91 28.8109 203.362 28.92 202.768 28.92V30.92ZM205.18 30.4485C205.913 30.1551 206.604 29.7876 207.252 29.3462L206.125 27.6938C205.599 28.0524 205.037 28.3516 204.437 28.5915L205.18 30.4485ZM205.838 29.046L207.718 32.086L209.419 31.034L207.539 27.994L205.838 29.046ZM208.032 30.7163C207.224 31.2303 206.339 31.6492 205.372 31.9713L206.005 33.8687C207.118 33.4975 208.153 33.0097 209.105 32.4037L208.032 30.7163ZM205.387 31.9664C204.464 32.258 203.565 32.4 202.688 32.4V34.4C203.785 34.4 204.886 34.222 205.99 33.8736L205.387 31.9664ZM219.582 16.24L220.579 16.157L220.502 15.24H219.582V16.24ZM219.982 21.04L219.028 21.3383L220.979 20.957L219.982 21.04ZM219.782 20.4L218.869 19.9916L218.715 20.3371L218.828 20.6983L219.782 20.4ZM221.702 17.8L221.045 17.0459V17.0459L221.702 17.8ZM224.262 16.16L224.653 17.0806L224.659 17.0778L224.666 17.0749L224.262 16.16ZM226.542 15.56L227.541 15.609L227.592 14.56H226.542V15.56ZM226.342 19.64L226.28 20.6381L227.291 20.7013L227.341 19.689L226.342 19.64ZM222.982 20.36L222.478 19.4962L222.468 19.5025L222.982 20.36ZM220.782 22.6L219.914 22.1039L220.782 22.6ZM219.982 33V34H220.982V33H219.982ZM215.902 33H214.902V34H215.902V33ZM215.902 16.24V15.24H214.902V16.24H215.902ZM218.586 16.323L218.986 21.123L220.979 20.957L220.579 16.157L218.586 16.323ZM220.937 20.7417L220.737 20.1017L218.828 20.6983L219.028 21.3383L220.937 20.7417ZM220.695 20.8084C221.09 19.9258 221.643 19.1775 222.359 18.5541L221.045 17.0459C220.108 17.8625 219.381 18.8476 218.869 19.9916L220.695 20.8084ZM222.359 18.5541C223.118 17.8933 223.883 17.4072 224.653 17.0806L223.872 15.2394C222.882 15.6594 221.94 16.2667 221.045 17.0459L222.359 18.5541ZM224.666 17.0749C225.514 16.7006 226.127 16.56 226.542 16.56V14.56C225.73 14.56 224.823 14.8194 223.859 15.2451L224.666 17.0749ZM225.543 15.511L225.343 19.591L227.341 19.689L227.541 15.609L225.543 15.511ZM226.405 18.6419C224.958 18.5515 223.635 18.8216 222.478 19.4962L223.486 21.2238C224.25 20.7784 225.166 20.5685 226.28 20.6381L226.405 18.6419ZM222.468 19.5025C221.389 20.1495 220.533 21.0198 219.914 22.1039L221.65 23.0961C222.098 22.3135 222.708 21.6905 223.497 21.2175L222.468 19.5025ZM219.914 22.1039C219.295 23.1871 218.982 24.3579 218.982 25.6H220.982C220.982 24.7088 221.203 23.8796 221.65 23.0961L219.914 22.1039ZM218.982 25.6V33H220.982V25.6H218.982ZM219.982 32H215.902V34H219.982V32ZM216.902 33V16.24H214.902V33H216.902ZM215.902 17.24H219.582V15.24H215.902V17.24ZM233.392 32.28L232.904 33.1534L232.911 33.157L232.917 33.1605L233.392 32.28ZM230.192 29.12L229.315 29.6013L229.319 29.6086L230.192 29.12ZM230.312 20L229.464 19.4685L229.462 19.4731L230.312 20ZM233.712 16.76L233.226 15.8858L233.219 15.8897L233.712 16.76ZM244.032 17.52L243.366 18.2667L243.373 18.2726L244.032 17.52ZM247.032 23L247.359 23.945L248.196 23.6552L248.009 22.789L247.032 23ZM233.392 27.72L232.463 28.0914L232.817 28.9769L233.719 28.665L233.392 27.72ZM232.432 25.32L232.094 24.3788L231.118 24.729L231.503 25.6914L232.432 25.32ZM243.352 21.4L243.878 22.2503L243.014 20.4588L243.352 21.4ZM242.512 21.92L241.579 22.281L242.014 23.4042L243.038 22.7703L242.512 21.92ZM240.992 19.76L240.313 20.4948L240.321 20.502L240.329 20.509L240.992 19.76ZM235.552 19.52L236.071 20.3748L236.079 20.3696L235.552 19.52ZM233.752 21.44L232.875 20.9591L232.869 20.9694L233.752 21.44ZM233.792 27.24L232.908 27.7092L232.917 27.7258L232.927 27.7421L233.792 27.24ZM235.712 29.2L235.197 30.0575L235.203 30.0612L235.209 30.0648L235.712 29.2ZM240.512 29.52L240.14 28.5915L240.134 28.5942L240.127 28.5969L240.512 29.52ZM242.392 28.52L243.242 27.994L242.692 27.1048L241.828 27.6938L242.392 28.52ZM244.272 31.56L244.808 32.4037L245.641 31.8737L245.122 31.034L244.272 31.56ZM241.392 32.92L241.693 33.8736L241.7 33.8712L241.708 33.8687L241.392 32.92ZM238.392 32.4C236.572 32.4 235.076 32.0513 233.866 31.3995L232.917 33.1605C234.48 34.002 236.318 34.4 238.392 34.4V32.4ZM233.879 31.4066C232.647 30.7197 231.717 29.7968 231.064 28.6314L229.319 29.6086C230.16 31.1099 231.363 32.2936 232.904 33.1534L233.879 31.4066ZM231.068 28.6387C230.412 27.4429 230.072 26.0652 230.072 24.48H228.072C228.072 26.3615 228.478 28.0771 229.315 29.6013L231.068 28.6387ZM230.072 24.48C230.072 23.0024 230.438 21.6933 231.161 20.5269L229.462 19.4731C228.531 20.9733 228.072 22.651 228.072 24.48H230.072ZM231.159 20.5315C231.923 19.3138 232.934 18.3495 234.204 17.6303L233.219 15.8897C231.663 16.7705 230.407 17.9662 229.465 19.4685L231.159 20.5315ZM234.197 17.6342C235.481 16.921 236.899 16.56 238.472 16.56V14.56C236.577 14.56 234.822 14.999 233.226 15.8858L234.197 17.6342ZM238.472 16.56C240.503 16.56 242.109 17.1461 243.366 18.2667L244.697 16.7733C243.021 15.2806 240.92 14.56 238.472 14.56V16.56ZM243.373 18.2726C244.673 19.41 245.583 21.0293 246.054 23.211L248.009 22.789C247.467 20.2774 246.377 18.2433 244.69 16.7674L243.373 18.2726ZM246.705 22.055L233.065 26.775L233.719 28.665L247.359 23.945L246.705 22.055ZM234.32 27.3486L233.36 24.9486L231.503 25.6914L232.463 28.0914L234.32 27.3486ZM232.769 26.2612L243.689 22.3412L243.014 20.4588L232.094 24.3788L232.769 26.2612ZM242.825 20.5497L241.985 21.0697L243.038 22.7703L243.878 22.2503L242.825 20.5497ZM243.444 21.559C243.064 20.5766 242.462 19.7254 241.654 19.011L240.329 20.509C240.908 21.0213 241.319 21.61 241.579 22.281L243.444 21.559ZM241.67 19.0252C240.746 18.172 239.532 17.8 238.152 17.8V19.8C239.171 19.8 239.851 20.068 240.313 20.4948L241.67 19.0252ZM238.152 17.8C237.016 17.8 235.965 18.0866 235.024 18.6704L236.079 20.3696C236.685 19.9934 237.367 19.8 238.152 19.8V17.8ZM235.033 18.6652C234.124 19.2168 233.406 19.9912 232.875 20.9592L234.628 21.9208C235.004 21.2355 235.486 20.7298 236.071 20.3748L235.033 18.6652ZM232.869 20.9694C232.351 21.9412 232.112 23.0561 232.112 24.28H234.112C234.112 23.3173 234.299 22.5388 234.634 21.9106L232.869 20.9694ZM232.112 24.28C232.112 25.5374 232.367 26.6899 232.908 27.7092L234.675 26.7708C234.309 26.0834 234.112 25.2626 234.112 24.28H232.112ZM232.927 27.7421C233.489 28.7112 234.248 29.4883 235.197 30.0575L236.226 28.3425C235.575 27.9517 235.054 27.4221 234.656 26.7379L232.927 27.7421ZM235.209 30.0648C236.198 30.6387 237.293 30.92 238.472 30.92V28.92C237.624 28.92 236.879 28.7213 236.214 28.3352L235.209 30.0648ZM238.472 30.92C239.318 30.92 240.13 30.7625 240.896 30.4431L240.127 28.5969C239.614 28.8109 239.065 28.92 238.472 28.92V30.92ZM240.883 30.4485C241.616 30.1551 242.307 29.7876 242.955 29.3462L241.828 27.6938C241.302 28.0524 240.74 28.3516 240.14 28.5915L240.883 30.4485ZM241.541 29.046L243.421 32.086L245.122 31.034L243.242 27.994L241.541 29.046ZM243.735 30.7163C242.927 31.2303 242.042 31.6492 241.075 31.9713L241.708 33.8687C242.821 33.4975 243.856 33.0097 244.808 32.4037L243.735 30.7163ZM241.09 31.9664C240.167 32.258 239.269 32.4 238.392 32.4V34.4C239.488 34.4 240.589 34.222 241.693 33.8736L241.09 31.9664Z" fill="#FF7562" fill-opacity="0.5" mask="url(#path-3-outside-2_2005_19)"/>
</svg>
